<svg xmlns="http://www.w3.org/2000/svg" viewBox="0 0 64 64" role="img" aria-labelledby="title">
 <title id="title">City skyline</title>
 <rect width="64" height="64" rx="14" fill="#9edfff"/>
 <path fill="#626a87" d="M5 53V25h18v28zm22 0V11h20v42zm24 0V31h8v22z"/>
 <path fill="#fff1a8" d="M10 31h5v6h-5zm0 11h5v6h-5zm25-24h5v7h-5zm-1 13h6v7h-6zm-1 13h7v9h-7zm21-8h3v5h-3zm0 9h3v5h-3z"/>
 <path fill="#3f4358" d="M0 53h64v11H0z"/>
 <path fill="#ffe36e" d="M5 57h13v3H5zm21 0h13v3H26zm21 0h12v3H47z"/>
</svg>
